# xmcd
#
# Track frame offsets: 
#        150
#        11449
#        23421
#        34672
#        48078
#        60885
#        76610
#        87840
#        101567
#        116497
#        130139
#        142256
#        154241
#        166781
#        179070
#        190162
#        200939
#        213151
#        228099
#        240982
#        255280
#        267261
#        280880
#        295899
#        308628
#
# Disc length: 4303 seconds
#
# Revision: 1
# Processed by: cddbd v1.5.2PL0 Copyright (c) Steve Scherf et al.
# Submitted via: ExactAudioCopy v0.95b4
#
DISCID=4310cd19
DTITLE=Various Artist - Western Swing and Country Jazz [disc 3]
DYEAR=2005
DGENRE=Western Swing
TTITLE0=Jimmie Revard and His Oklahoma Playboys - Dirty Dog [1936]
TTITLE1=Jimmie Revard and His Oklahoma Playboys - Fox and the Hounds [19
TTITLE1=36]
TTITLE2=Jimmie Revard and His Oklahoma Playboys - Bound to Look like a M
TTITLE2=onkey [1937]
TTITLE3=Jimmie Revard and His Oklahoma Playboys - Daddy's Got the Deep E
TTITLE3=lm Blues [1937]
TTITLE4=Jimmie Revard and His Oklahoma Playboys - I've Got Trouble in Mi
TTITLE4=nd [1937]
TTITLE5=Jimmie Revard and His Oklahoma Playboys - Thinking [1937]
TTITLE6=Jimmie Revard and His Oklahoma Playboys - We Played a Game [1937
TTITLE6=]
TTITLE7=Jimmie Revard and His Oklahoma Playboys - My Little Girl [1937]
TTITLE8=Jimmie Revard and His Oklahoma Playboys - Blues in the Bottle [1
TTITLE8=936]
TTITLE9=Jimmie Revard and His Oklahoma Playboys - Ride 'Em Cowboy [1936]
TTITLE10=Jimmie Revard and His Oklahoma Playboys - Oh! Swing It [1938]
TTITLE11=Jimmie Revard and His Oklahoma Playboys - After Hours Blues [19
TTITLE11=36]
TTITLE12=Jimmie Revard and His Oklahoma Playboys - Someone Else You Care
TTITLE12=for You [1938]
TTITLE13=Jimmie Revard and His Oklahoma Playboys - It's a Long Way to Ti
TTITLE13=pperary [1938]
TTITLE14=Jimmie Revard and His Oklahoma Playboys - Triflin' Gal [1936]
TTITLE15=Jimmie Revard and His Oklahoma Playboys - At the End of the Lan
TTITLE15=e [1937]
TTITLE16=Jimmie Revard and His Oklahoma Playboys - Let Me Live and Love 
TTITLE16=You [1937]
TTITLE17=Jimmie Revard and His Oklahoma Playboys - Everything's Gonna Be
TTITLE17=Alright [1938]
TTITLE18=Jimmie Revard and His Oklahoma Playboys - Old Waterfall [1938]
TTITLE19=Jimmie Revard and His Oklahoma Playboys - Holdin' the Sack [193
TTITLE19=6]
TTITLE20=Jimmie Revard and His Oklahoma Playboys - Cats Are Bad Luck [19
TTITLE20=37]
TTITLE21=Jimmie Revard and His Oklahoma Playboys - Big Daddy Blues [1936
TTITLE21=]
TTITLE22=Jimmie Revard and His Oklahoma Playboys - Lose Your Blues and L
TTITLE22=augh at Life [1937]
TTITLE23=Jimmie Revard and His Oklahoma Playboys - Crafton Blues [1936]
TTITLE24=Jimmie Revard and His Oklahoma Playboys - Riding down the Canyo
TTITLE24=n [1937]
EXTD=4CD: JSP Records JSP7742 (2005-03-29), UPC 788065774226.
EXTT0=
EXTT1=
EXTT2=
EXTT3=
EXTT4=
EXTT5=
EXTT6=
EXTT7=
EXTT8=
EXTT9=
EXTT10=
EXTT11=
EXTT12=
EXTT13=
EXTT14=
EXTT15=
EXTT16=
EXTT17=
EXTT18=
EXTT19=
EXTT20=
EXTT21=
EXTT22=
EXTT23=
EXTT24=
PLAYORDER=
